<?xml version="1.0" encoding="UTF-8" standalone="no"?>
<svg
   version="1.0"
   width="1024px"
   height="1024px"
   viewBox="0 0 1024 1024"
   preserveAspectRatio="xMidYMid meet"
   id="svg9"
   sodipodi:docname="FreeSample-Vectorizer-io-CarelessWhisper.svg"
   inkscape:version="1.4.3 (0d15f75042, 2025-12-25)"
   xmlns:inkscape="http://www.inkscape.org/namespaces/inkscape"
   xmlns:sodipodi="http://sodipodi.sourceforge.net/DTD/sodipodi-0.dtd"
   xmlns="http://www.w3.org/2000/svg"
   xmlns:svg="http://www.w3.org/2000/svg">
  <defs
     id="defs9" />
  <sodipodi:namedview
     id="namedview9"
     pagecolor="#ffffff"
     bordercolor="#000000"
     borderopacity="0.25"
     inkscape:showpageshadow="2"
     inkscape:pageopacity="0.0"
     inkscape:pagecheckerboard="0"
     inkscape:deskcolor="#d1d1d1"
     inkscape:zoom="0.62979077"
     inkscape:cx="249.28914"
     inkscape:cy="493.02088"
     inkscape:window-width="1536"
     inkscape:window-height="788"
     inkscape:window-x="0"
     inkscape:window-y="0"
     inkscape:window-maximized="1"
     inkscape:current-layer="svg9" />
  <g
     fill="#000000"
     id="g5">
    <path
       d="M169.5 820.6 c-15.5 -3.8 -27.9 -17.1 -31.4 -33.4 -0.8 -3.9 -1.1 -77.3 -1.1 -269 0 -284.8 -0.2 -269.9 5.1 -280.4 5.4 -10.5 17.8 -19.4 30.3 -21.7 8 -1.5 25.6 -1.3 33.6 0.3 11.9 2.4 138.4 38.8 143.8 41.4 6.3 3.1 15 11.9 18.6 19 5.8 11.4 5.6 7 5.6 126.2 0 83.9 -0.3 109.9 -1.2 110.8 -1.6 1.6 -8.3 1.5 -9.7 -0.1 -0.7 -1 -1.1 -32.5 -1.3 -108.8 -0.2 -68.9 -0.7 -108.2 -1.3 -109.6 -0.7 -1.5 -0.9 33.8 -0.7 107.4 0.2 80.9 -0.1 109.9 -0.9 110.9 -1.4 1.7 -7 1.8 -9.2 0.1 -1.5 -1.1 -1.7 -9.3 -1.9 -106.7 l-0.3 -105.5 -2.4 -5.2 c-3.1 -6.9 -8.5 -11.7 -15.4 -13.7 -6.7 -2 -6.7 -2 -6.7 -0.1 0 2.7 -3.8 9.2 -6.6 11.4 -2.2 1.7 -4.1 2.1 -10.2 2.1 -6.1 0 -11.4 -1.1 -27.6 -5.6 -38.2 -10.6 -41.1 -11.5 -44.3 -14 -3.9 -3 -8 -11.3 -8.9 -18 l-0.6 -5.2 -9.2 -2.6 c-5.1 -1.4 -10.1 -2.6 -11.3 -2.6 -3.3 0 -8 4.6 -10 9.8 -1.7 4.5 -1.8 15.4 -1.8 259.7 l0 255 2.8 5.7 c3.3 6.8 7.7 10.3 12.7 10.2 1.9 0 22.6 -5.3 46 -11.7 62.5 -17.1 79.8 -22.3 84 -25.1 2.5 -1.7 4.8 -4.5 6.7 -8.3 l2.8 -5.8 0.5 -92.5 0.5 -92.5 5.5 0 5.5 0 0.5 95 c0.3 52.3 0.8 93.2 1.2 91 0.4 -2.2 0.8 -44.6 0.8 -94.1 0 -76.8 0.2 -90.3 1.4 -91.3 0.8 -0.7 3.4 -1.1 5.8 -0.9 l4.3 0.3 0.3 95 c0.2 67.4 0 96.7 -0.8 101 -2.3 12.3 -11.1 25.6 -20.4 30.9 -4.9 2.9 -14.2 5.8 -53.1 16.6 -66.2 18.5 -86.3 23.9 -91.9 24.9 -7.9 1.5 -31.8 1.2 -38.1 -0.3z m3 -16.3 c-1.4 -2.1 -3.6 -6.7 -4.8 -10.3 l-2.2 -6.5 -0.3 -266.5 c-0.2 -189.4 0 -268.4 0.8 -273 0.6 -3.6 2.2 -8.9 3.5 -11.8 1.3 -2.8 2.2 -5.2 1.9 -5.2 -0.3 0 -1.9 0.7 -3.5 1.6 -5.1 2.6 -10.9 8.5 -13.6 13.7 -5.5 11 -5.3 -2.9 -5.3 272.3 0 164.7 0.4 256 1 259.4 2.4 12.5 10.3 23.5 20.3 28 2.3 1.1 4.3 2 4.5 2 0.1 0 -0.9 -1.7 -2.3 -3.7z m52.5 -2 c64.8 -17.6 112 -31.3 117.2 -34 2.5 -1.4 6.1 -4.1 8 -6 l3.3 -3.5 -5 3.4 c-5.6 3.7 -19.3 8.1 -62 19.9 -51.5 14.2 -74 19.9 -78.5 19.9 -13.4 0 -22.5 -7 -26.4 -20 -1.4 -4.8 -1.6 -31.1 -1.6 -264.9 0 -286.6 -0.5 -266.5 6.2 -274.5 7.2 -8.8 17.6 -9.9 37.3 -4.1 6.5 1.9 12.2 4 12.6 4.6 0.4 0.7 1.2 4.3 1.7 8 1.3 8.7 4.3 13.6 9.6 15.9 2.3 1 16.2 5.1 31 9.1 19.7 5.3 27.3 7 28.5 6.2 0.9 -0.5 2.4 -3.6 3.4 -6.9 2.6 -8.4 3 -8.9 7 -9.2 6.6 -0.6 29.2 6.5 31.2 9.8 0.3 0.5 1.1 1 1.7 1 2.3 0 -2.6 -4 -8.6 -7 -7.2 -3.6 -135.1 -40.2 -140.8 -40.2 -2.3 -0.1 -5.7 1.1 -9 2.9 -6.3 3.5 -11 10.5 -13 19.2 -1 4.5 -1.3 56.6 -1.3 266.1 l0 260.5 2.2 7.1 c4.1 13.1 16.3 23.4 25.8 21.7 1.7 -0.2 10.4 -2.5 19.5 -5z"
       id="path1" />
    <path
       d="M282 273.5 c-4.1 -1.3 -11.2 -3.3 -15.8 -4.6 -9.4 -2.4 -11.2 -3.8 -11.2 -8 0 -8.3 3 -8.6 24.8 -2.4 21.7 6.2 20.4 5.5 20 11.8 l-0.3 5.2 -5 0.2 c-2.9 0.1 -8.1 -0.8 -12.5 -2.2z"
       id="path2" />
    <path
       d="M808 804.4 c-10.6 -2 -25.1 -8.6 -34.5 -15.7 -20.7 -15.5 -38.5 -46.3 -38.5 -66.5 0 -12.1 4.8 -17.2 16.3 -17.2 10.5 0 15.5 3.7 18.8 13.9 8.2 25.1 24.3 43.5 43.2 49.3 8.9 2.7 14.9 2 24.4 -2.7 20.3 -10 31.1 -34.4 34.3 -77.9 0.6 -7.6 1.9 -17.8 2.9 -22.5 5.4 -24.3 17.4 -48 34.7 -68.6 15 -17.8 23.2 -33.6 29.2 -56.5 3.4 -13 3.5 -14.2 3.6 -31.5 0.1 -19.7 -1 -27 -6.6 -44 -3.9 -12 -12.3 -29.4 -18.8 -39.1 -2.9 -4.3 -9.4 -12.1 -14.4 -17.3 -14.3 -14.7 -29.4 -23.9 -47.4 -28.8 -18.8 -5.2 -38.8 -3.2 -58.2 5.8 -37.9 17.6 -62.1 57.9 -65.6 109.2 -0.8 11.2 -2.6 15 -8.4 17.9 -8.3 4.2 -21.5 0.9 -25.2 -6.2 -2.1 -4.1 -2.4 -12.9 -0.7 -27.8 4.2 -38.9 18.5 -72 41.6 -96.3 18.6 -19.4 38.5 -31 65.1 -37.6 9.7 -2.5 12.5 -2.7 29.7 -2.7 14.7 -0.1 20.9 0.3 27.3 1.7 43.3 9.5 78.3 39 99.8 84.2 11.5 24.2 16.3 44.6 17.1 72.1 1.4 48.6 -10.9 87.1 -38.3 119.9 -21.8 26.1 -30.9 48.3 -32.9 80 -3.3 54.5 -23.9 89.6 -60.2 102.7 -4.7 1.7 -8.7 2.1 -20.8 2.3 -8.2 0.2 -16.1 0.1 -17.5 -0.1z m27.5 -13.4 c18.3 -4.7 35.3 -19.5 45.3 -39.5 7.2 -14.5 12.4 -37.1 14.2 -61.5 1.5 -21.5 5.1 -34.8 14.4 -52.8 2.5 -4.8 7.7 -12.7 11.6 -17.7 17.7 -22.6 22.5 -29.6 27.6 -40 10.4 -21.4 16 -43.5 17.1 -68 1.8 -42.1 -17.4 -90.5 -48.2 -121 -20 -19.8 -42.3 -31.5 -68.4 -35.9 -11.8 -2 -18.5 -2 -29.7 -0.1 -29.8 5.2 -56.3 20.1 -74.7 42.2 -20.2 24.4 -31.6 52.4 -35.7 88.1 -1 9.2 -0.9 10.6 0.5 12.8 2.3 3.5 4.3 4 6.8 1.6 1.7 -1.8 2.3 -4.3 3.3 -14.9 2.2 -22.5 6.5 -39 14.3 -55.4 14.9 -31.3 40.8 -53.5 71.7 -61.5 12.2 -3.2 31.6 -4.2 44.9 -2.5 52 6.9 95.3 57.4 103.6 120.6 1.7 13.4 0.6 43.4 -2.1 56 -4.6 21.7 -13.1 41 -24.6 55.8 -19.4 25.1 -22.7 29.8 -27.8 40.1 -9.8 19.6 -13.9 34.6 -15.6 57.3 -2.1 26.8 -5.7 41.9 -13.7 57.6 -8 15.4 -20.5 25.7 -35.1 28.8 -8.6 1.7 -25.3 0.7 -32.7 -2.1 -19 -7.2 -33.2 -23.3 -42.6 -48.2 -2.1 -5.5 -4.3 -10.6 -5 -11.4 -1.6 -2 -4.3 -1.7 -6.3 0.5 -1.7 1.9 -1.7 2.2 -0.1 7.3 1 2.9 4.2 10.3 7.1 16.3 11.8 24.2 31.6 41.7 53.5 47.5 9.6 2.5 16.7 2.5 26.4 0z"
       id="path3" />
    <path
       d="M809 713 c-10.6 -1.9 -24.9 -9.2 -28 -14.3 -1.5 -2.4 -2 -5 -2 -10.6 0 -12.3 4.8 -17.1 17.2 -17.1 5.2 0 7.7 0.6 13.6 3.5 l7.2 3.4 1.2 -2.2 c1.3 -2.5 1.4 -5.4 0.3 -30.7 -0.6 -16.8 -0.5 -19.1 1.3 -24.6 2.5 -7.9 7 -14.5 18.2 -26.9 5.2 -5.8 9.7 -11.8 10.6 -14.2 1.6 -4.1 1.6 -4.6 -0.5 -11 -2.6 -7.9 -8.4 -16.6 -10.9 -16.1 -0.9 0.2 -4.9 4.6 -8.9 9.8 -15.7 20.3 -20.7 24 -33.4 24.8 -11.8 0.7 -17.9 -1.5 -25.4 -9.2 -7.1 -7.3 -11.7 -16 -14.5 -27.7 -2.6 -11.2 -3.5 -28.8 -2.1 -42 4.8 -44.1 28.5 -74.8 63.3 -82 31.9 -6.5 63.6 4.1 80.9 27.2 6.7 8.8 8.9 14 8.9 20.9 0 11.5 -4.5 16.8 -15 17.7 -9.6 0.9 -14.2 -1.4 -19.4 -9.6 -7.5 -11.6 -16.8 -18.4 -29.8 -21.7 -16.8 -4.3 -36.1 6.9 -45.6 26.6 -9.1 18.9 -11.1 40.7 -5 56.3 0.6 1.5 1.3 2.7 1.7 2.7 0.3 -0.1 3.3 -3.7 6.6 -8.2 7.2 -9.7 14.8 -16.8 21.2 -19.9 4.2 -2.1 6.2 -2.4 16.3 -2.4 10.5 0 12 0.2 17.1 2.8 7.9 3.8 14 9.6 19.9 18.5 7 10.6 10.1 20.7 10.7 34.8 0.6 12.6 -0.4 18.8 -4.8 27.7 -3.8 7.7 -6 10.7 -14.7 20 -4 4.4 -8.5 9.7 -9.9 11.8 l-2.6 4 1.3 16.9 c2 25.8 -0.1 39.1 -7.6 49.3 -7.6 10.4 -20.9 14.5 -37.4 11.7z m18.6 -14.3 c10.9 -5.6 16.5 -20.9 14.5 -39.2 -0.6 -5.2 -1.1 -14.4 -1.1 -20.5 0 -13.6 0.8 -15.5 12.1 -27.8 4.4 -4.8 9.8 -11.3 12 -14.6 3.8 -5.6 7.9 -16.6 7.9 -21 -0.1 -5.4 -3.3 -16.7 -7 -24.2 -7 -14.1 -21.8 -25.6 -30.8 -23.9 -7.8 1.5 -15.8 7.9 -25.1 20.5 -3 4.1 -7.3 9.4 -9.4 11.8 -3.5 3.7 -4.5 4.2 -8.4 4.2 -5.4 0 -8.3 -2.6 -11.9 -10.5 -4.2 -9 -5.7 -20.1 -5.1 -35.5 0.7 -14.8 2.1 -21.8 6.7 -33.4 7.9 -20.1 19.4 -31.2 36.7 -35.6 20.7 -5.4 42.4 -0.1 55.9 13.4 3.3 3.4 7.1 8.1 8.5 10.5 3.3 6.1 5.3 7.2 8 4.4 2.9 -2.9 2.2 -5.2 -4.3 -13.8 -15.7 -20.7 -42.8 -31.1 -65.8 -25.1 -28.7 7.4 -48.9 32.2 -55 67.6 -5 28.7 4.7 59.9 20.8 66.8 4.2 1.8 5.4 2 8.8 0.9 4.9 -1.4 11.4 -7.9 22.1 -21.8 8.8 -11.4 12.2 -13.9 19.2 -13.9 5.8 0 10 2 14.3 6.8 7.2 8 10.8 18.2 10.8 30.7 0 10.9 -2.9 16.6 -15.5 30.5 -5.9 6.5 -10.8 13 -12.8 17 -2.9 5.9 -3.2 7.2 -3.2 16 0 5.2 0.4 15.6 0.9 23 1 14.8 -0.3 22.8 -4.3 26.4 -3.1 2.9 -16.8 1.9 -24.2 -1.7 -6.6 -3.2 -8 -3.3 -10.3 -0.8 -2.6 2.9 -0.4 5.6 7.9 9.6 13 6.3 19.7 7.1 27.1 3.2z"
       id="path4" />
    <path
       d="M569 644.8 c-6.3 -6.7 -9.8 -32.7 -18 -131.3 -5.5 -65.9 -7.2 -83.3 -9.5 -98.9 -1.6 -10.2 -3.2 -17.9 -3.4 -16.1 -0.1 0.6 -0.8 4.8 -1.6 9.5 -2.1 12.3 -5 41.4 -9 89.9 -7.5 91.1 -11.1 116.3 -17.2 121.1 -3.3 2.6 -9.6 2.7 -12.2 0.1 -4.7 -4.7 -9.2 -25.9 -13.1 -62.6 -5 -47.3 -6.2 -57.5 -8.1 -68.4 -1.1 -6.3 -2.3 -11.9 -2.8 -12.4 -1.3 -1.3 -3.7 12.1 -8.6 46.3 -5.8 41.3 -9.8 57 -15.4 60 -1.1 0.5 -3.8 1 -6 1 -9.1 0 -12.4 -7.1 -18.6 -39.8 -3.9 -20.5 -6.2 -30.2 -7.5 -31.5 -0.4 -0.5 -2.2 3.5 -4 8.7 -3.5 10.5 -6.6 15.1 -11.7 17.2 -4.9 2.1 -124.5 2 -126.2 0 -0.7 -0.8 -1.1 -3.4 -0.9 -5.8 l0.3 -4.3 59.5 -0.5 c32.7 -0.3 60.1 -0.9 60.8 -1.3 1.8 -1.2 4.1 -6.1 7.3 -15.5 1.6 -4.7 4 -10 5.4 -11.8 2.5 -3.2 2.9 -3.4 9 -3.4 4.7 0 6.8 0.5 8.1 1.7 3.4 3.5 6.4 12.1 9.4 27.8 8.6 44.2 8.6 44.3 11.8 30.9 2.7 -11.2 3.5 -15.7 7.2 -42.9 5.7 -40.8 8.7 -53.5 13.7 -57.4 3.7 -3 10.3 -2.8 13.2 0.3 4.5 4.8 8.4 23.2 12.1 58.1 6.1 56.5 9.6 82.5 11 82.5 0.8 0 3.2 -14.8 4.9 -30.5 1.8 -15.4 3 -29.5 7.1 -78.8 6.3 -75.8 9.5 -98.9 14.9 -108.2 1.5 -2.6 2.3 -3 6.8 -3.3 6.2 -0.4 8.2 1.3 10.6 9 4.9 16 7.6 39.3 15.2 129.8 5.2 62.8 8.2 91.5 10.9 104.5 l1.3 6 1.1 -5.1 c2 -9 5.2 -35.9 8.7 -73.9 5.6 -59 8.3 -77.3 12.8 -86.5 l2.2 -4.5 6.2 -0.3 c6.1 -0.3 6.3 -0.2 8.3 3 4.7 7.6 6.5 16.4 13 61.3 4 27.9 7.4 45.5 9 45.5 1.2 0 4.5 -13.4 8 -32.5 3.7 -20.5 6.3 -29.3 10 -33.7 2.6 -3 3.2 -3.3 8.5 -3.3 5.1 0 5.9 0.3 8.5 3.1 1.5 1.8 4 6.8 5.5 11.5 3.1 9.5 5.9 15.4 7.7 16.6 0.7 0.4 9.2 1 18.8 1.3 l17.5 0.5 0 5.5 0 5.5 -21.9 0 -21.8 0 -3.9 -4.3 c-2.7 -3.1 -4.7 -7 -6.9 -13.8 -1.8 -5.2 -3.4 -9.3 -3.7 -9.1 -1 1 -4.4 15.9 -7.3 32 -4.4 24.1 -8.5 36.3 -12.9 38.7 -1.1 0.5 -4 1 -6.5 1 -11.1 0 -13.8 -9 -23.1 -75 -2.5 -17.6 -5.1 -31.9 -5.9 -32.8 -1.8 -1.7 -5.7 27.7 -10.1 75.8 -6 65 -10.2 90.6 -15.8 94.5 -3.3 2.3 -10.2 2 -12.7 -0.7z"
       id="path5" />
  </g>
  <g
     fill="#ffffff"
     id="g9"
     style="fill:#ffffff;fill-opacity:1">
    <path
       d="M0 512 l0 -512 512 0 512 0 0 512 0 512 -512 0 -512 0 0 -512z m204.6 305.9 c5.6 -1 25.7 -6.4 91.9 -24.9 38.9 -10.8 48.2 -13.7 53.1 -16.6 9 -5.2 17.8 -18.3 20.3 -30.2 0.8 -3.6 1.1 -34.1 1.1 -97.8 0 -81.6 -0.2 -92.5 -1.5 -93 -0.8 -0.4 -2.2 -0.1 -3 0.6 -1.3 1.1 -1.5 12.9 -1.5 91.9 0 98.2 0 97.2 -5.5 108.2 -3.4 6.7 -8.4 12 -14.2 15.1 -4.5 2.4 -26.5 9 -79.3 23.7 -11.8 3.3 -29.1 8.1 -38.5 10.7 -26.5 7.4 -33.7 6.7 -43.9 -4.7 -3.4 -3.8 -5.2 -7 -6.9 -12.3 l-2.2 -7.1 0 -263.5 c0 -211.9 0.3 -264.6 1.3 -269.1 2 -8.8 6.7 -15.7 13.2 -19.3 9.7 -5.4 9.7 -5.4 84 15.7 42.2 12 67.8 19.8 71.9 21.9 7.5 3.7 13.5 11 17.2 21 l2.4 6.3 0.3 107.6 c0.2 93.6 0.4 107.9 1.7 108.9 1.2 1 1.8 1 3 0 2.3 -1.9 2.3 -211.6 0 -220.3 -3.3 -12.8 -12.6 -25 -22.7 -29.9 -5.4 -2.6 -131.9 -39 -143.8 -41.4 -8 -1.6 -19.7 -1.8 -27.6 -0.3 -12.5 2.3 -24.9 11.2 -30.3 21.7 -5.3 10.5 -5.1 -4.2 -5.1 277.4 0 189.5 0.3 262.1 1.1 266 3.5 16.3 15.9 29.6 31.4 33.4 6.3 1.5 24.2 1.7 32.1 0.3z m638.7 -18.7 c11.9 -4.3 19.9 -9.3 28.7 -18.2 18.9 -18.9 29.2 -46.5 31.5 -84.5 2 -31.7 11.1 -53.9 32.9 -80 9.2 -10.9 14.7 -19.4 21 -32.2 19.6 -39.6 23 -89.5 9 -132 -18.5 -55.9 -58.7 -95.2 -108.6 -105.9 -6.1 -1.4 -12.6 -1.8 -24.3 -1.8 -13.9 0 -17.4 0.4 -26.7 2.7 -26.5 6.6 -46.5 18.2 -65.1 37.6 -23.4 24.6 -37.5 57.7 -41.8 97.5 -1.9 18.2 -0.1 23.8 8.6 27.1 5.2 2 10 1.5 13.9 -1.6 4.1 -3.2 5.3 -6.6 6 -16.9 1 -14.1 3.4 -27.2 7.2 -38.7 12.8 -39.3 37.9 -65.1 73.9 -75.9 8 -2.4 10.7 -2.7 24 -2.8 13.3 -0.1 16.1 0.2 24.7 2.6 18 5 33.1 14.2 47.4 28.9 5 5.2 11.5 13 14.4 17.3 10.1 15.1 19.5 37.5 23.6 56.6 1.5 6.9 1.9 12.5 1.8 29.5 0 20.8 -0.1 21.1 -3.6 34.5 -6.1 22.9 -14.2 38.7 -29.2 56.5 -17.3 20.6 -29.3 44.3 -34.7 68.6 -1 4.7 -2.3 14.9 -2.9 22.5 -3.3 43.7 -14 67.8 -34.6 78.1 -28 13.8 -60.2 -6.7 -73.3 -46.8 -3.9 -11.8 -12.5 -16.7 -21.7 -12.3 -7.5 3.6 -9.2 11.7 -5 24.2 11 32.4 33.7 56.3 61.7 65.1 9.2 2.9 10.2 3 23.4 2.6 8.9 -0.2 13.5 -0.8 17.8 -2.3z m-609.8 -6.6 c36.3 -9.6 74.2 -20.1 91.4 -25.3 19.5 -5.9 23.3 -8.3 28.1 -17.7 l3.5 -6.9 0 -93.6 0 -93.6 -2.5 0 -2.5 0 -0.5 92.5 -0.5 92.5 -2.8 5.8 c-1.9 3.8 -4.2 6.6 -6.7 8.3 -4.2 2.8 -20.7 7.7 -84 25.2 -33.9 9.3 -43.8 11.7 -49 11.7 -8.2 0 -11.8 -2.3 -15.7 -10.3 l-2.8 -5.7 0 -258 c0 -247.2 0.1 -258.2 1.8 -262.7 1 -2.6 3.2 -5.8 4.7 -7.2 4.9 -4.1 8 -4.2 20.5 -0.6 l11.3 3.2 0.6 5.2 c0.9 6.7 5 15 8.9 18 1.8 1.4 7.9 3.8 13.7 5.4 54.3 15.4 57.4 16 62.4 12.1 2.8 -2.2 5.9 -7.5 6.9 -12 l0.7 -2.7 7.9 2.3 c4.4 1.3 8.7 2.8 9.8 3.3 3.2 1.8 7.1 6.6 9.5 11.7 l2.3 5 0.3 105.5 c0.2 96.8 0.4 105.6 1.9 106.7 4.4 3.3 4.3 5.1 4.3 -105.6 0 -111.7 0 -110.5 -4.9 -118.4 -5.1 -8.2 -9.9 -11.2 -24.4 -15.2 -7.1 -1.9 -10.2 -2.3 -11.1 -1.6 -0.7 0.6 -1.8 3.6 -2.5 6.7 -1.7 7.3 -4.9 10.8 -9.4 10.2 -5.1 -0.7 -58.7 -15.7 -61.7 -17.3 -4.1 -2.1 -7 -7.6 -8.2 -15.4 -0.5 -3.7 -1.3 -7.3 -1.7 -8 -1.1 -1.7 -23.7 -8.1 -28.8 -8.1 -9 0 -16.8 6.8 -19.7 16.9 -1.4 5.2 -1.6 30 -1.6 262.2 0 280.7 -0.4 261.8 5.6 270.9 4 6 12.1 10.7 18.9 10.9 1.2 0.1 12.9 -2.8 26 -6.3z m595.6 -83.7 c8.6 -2.2 17.2 -12 20.5 -23.4 2 -7 2.3 -18.6 1 -39.2 l-0.9 -14.2 2.6 -4 c1.4 -2.1 5.9 -7.4 9.9 -11.8 8.7 -9.3 10.9 -12.3 14.7 -20 4.1 -8.5 5.5 -15.3 4.8 -24.7 -1.5 -21.6 -14 -42.2 -30.6 -50.3 -4.8 -2.4 -6.8 -2.8 -14.1 -2.8 -6.9 0 -9.4 0.4 -13.4 2.4 -6.3 3.1 -14 10.5 -22.9 22 -3.9 5.2 -7.7 9.6 -8.3 9.8 -1.2 0.4 -4.8 -7 -6.5 -13.7 -2.1 -7.6 -1.6 -27.2 1 -37.5 4.7 -19.3 15.7 -35.2 28.3 -41 21.6 -9.9 46.9 -1.9 59.5 18.8 2.8 4.7 4.6 6.4 8 7.9 9.9 4.4 20.3 -2.4 20.3 -13.2 0 -6.1 -8.8 -19.7 -17.7 -27.5 -29.3 -25.6 -72.6 -25.7 -99.7 -0.4 -4.3 4 -9.6 9.9 -11.7 13.1 -16.4 24.1 -22.6 58.6 -15.8 87.6 2.7 11.7 7.2 20.4 14.4 27.8 5 5.2 7.1 6.5 12 7.9 10.2 3 19.5 0.5 27.4 -7.4 2.1 -2.1 7.6 -8.6 12.1 -14.5 10.1 -13.1 11.7 -14.3 15.9 -12.2 6.1 3.2 13.1 17.6 13.1 26.8 -0.1 6.4 -2.8 11.3 -12.4 21.8 -10.8 11.8 -15.4 18.6 -17.9 26.4 -1.7 5.5 -1.8 7.6 -1.1 21.6 1.3 25.3 1.2 31.2 -0.9 34.3 -2.1 3.3 -3.7 3 -14.2 -2 -7.7 -3.7 -12 -4.1 -17.1 -1.7 -6.9 3.3 -9.6 13.3 -5.4 20.1 3.1 5.1 17.3 12.4 28 14.3 4.8 0.9 11.1 0.5 17.1 -1.1z m-250.4 -66.4 c5.6 -3.9 9.8 -29.5 15.8 -94.5 4.3 -46.7 6.7 -65.7 10.2 -78.2 0.9 -3.2 1.9 -5.8 2.3 -5.8 0.4 0 1.3 1.2 1.9 2.8 2.9 7.2 5 19.5 11.1 62.7 5.5 39.7 11.3 54.1 19.9 49.6 4.6 -2.5 8.7 -14.7 13 -38.7 4.4 -23.8 7.9 -36.4 10.2 -36.4 1.6 0 3.9 4.6 6.9 13.6 2.2 6.7 4.2 10.5 6.9 13.6 l3.9 4.3 18.8 0 18.9 0 0 -2.5 0 -2.5 -17.5 -0.5 c-9.6 -0.3 -18.1 -0.9 -18.8 -1.3 -1.8 -1.2 -4.6 -7.1 -7.7 -16.6 -4.6 -14 -10.8 -18.1 -16.6 -11.2 -3.7 4.4 -6.2 13.2 -10.4 36.1 -3.7 19.6 -8 35.1 -10.1 35.7 -1.7 0.5 -4.9 -7.9 -7.2 -18.7 -1.2 -5.2 -3.7 -21 -5.7 -35 -5.8 -41.4 -7.9 -51.3 -12.5 -58.8 -1.7 -2.8 -2.5 -3.3 -5.3 -3 -8 0.8 -11.1 16.7 -18.2 91.3 -4.8 51.8 -8.1 76.2 -11.5 85 -1 2.6 -1.3 2.8 -2.1 1.3 -1.7 -3 -4.7 -18.7 -6.9 -35.8 -1.1 -9.1 -4.5 -46 -7.5 -82 -7.6 -90.5 -10.3 -113.8 -15.2 -129.8 -4.1 -13.2 -10.8 -11.9 -14.6 2.9 -4 15.1 -6.4 35.6 -11.7 99.9 -6.9 82.6 -9.8 107.5 -13.8 118 l-1 2.5 -1.2 -3 c-3.2 -8 -6.7 -31.2 -11.5 -77.5 -5.2 -49.9 -8.6 -66.9 -14 -72 -2.1 -2 -2.8 -2.2 -4.9 -1.2 -1.4 0.6 -3.2 2.1 -4 3.4 -3.2 5 -6.8 21.7 -11.1 52.3 -2.5 17.6 -5.3 35.4 -6.1 39.5 -2 9.6 -5.6 20.3 -7 20.7 -1.9 0.6 -5.4 -9.6 -8 -23.2 -6 -31.1 -7.7 -38.3 -9.8 -43 -3 -6.6 -5 -8.5 -9.1 -8.5 -4.5 0 -7.7 4.2 -11.4 15.2 -3.5 10.4 -5.6 14.4 -8 15.8 -1.3 0.6 -22.3 1 -60.6 1 -51.3 0 -58.6 0.2 -59.1 1.5 -0.4 0.8 -0.1 2.2 0.6 3 1.1 1.3 9.1 1.5 59.2 1.5 63.2 0 62 0.1 67 -5.8 1.4 -1.7 4 -7.3 5.7 -12.5 3.1 -9.3 5.4 -13.7 7.1 -13.7 2.7 0 5.4 9.4 10.5 36.2 4.5 24.1 7.6 33.8 11.6 37.2 3.5 3 4.7 3.2 7.5 1.1 5.5 -3.8 9.6 -20.5 15.4 -62.5 2.3 -16.2 4.8 -32.4 5.6 -36 2 -9.1 4.4 -16 5.4 -16 2.5 0 6.9 22.9 10 52.2 7.3 67.9 9.8 84.9 14 94.6 2.9 6.7 5.3 8.1 8.9 5.5 6.5 -4.9 10 -29.1 17.6 -121.4 5.5 -66.5 9.1 -97.5 12.6 -106.6 0.9 -2.5 1.2 -2.6 2 -1.1 1.5 2.7 4.6 17.9 6.3 30.8 2.2 17.3 3.2 27.1 8.6 93 8.2 98.1 11.8 124.1 18 130.8 2.5 2.6 3.8 2.7 6.7 0.7z m-281.9 -372.2 c0.4 -2.9 -0.1 -3.1 -20.3 -8.9 -14.6 -4.1 -16 -4.4 -17.1 -2.9 -2.1 2.8 -0.5 4.4 6.5 6.4 3.6 1.1 11.1 3.3 16.6 4.9 11.7 3.5 13.9 3.6 14.3 0.5z"
       id="path6"
       style="fill:#ffffff;fill-opacity:1" />
    <path
       d="M174.2 811.4 c-7.2 -1.9 -10.7 -3.9 -16.2 -9 -5.2 -4.9 -9.4 -13 -11 -21.4 -0.6 -3.4 -1 -95.7 -1 -262.4 0 -278.4 -0.2 -264.3 5.3 -275.3 5 -9.8 15.3 -16.5 29.2 -18.8 l3.9 -0.7 -4.2 4.1 c-5.2 5 -8.9 12.4 -10.8 21 -2.1 10.2 -2.1 526.3 0.1 536.6 2 9.6 5.7 16.5 11.8 22.5 l5.1 5 -3.5 -0.1 c-1.8 0 -5.8 -0.7 -8.7 -1.5z"
       id="path7"
       style="fill:#ffffff;fill-opacity:1" />
    <path
       d="M806.1 794 c-21.5 -5.7 -41.5 -23.2 -53.1 -46.6 -9.5 -19.1 -11.2 -27.5 -6.4 -31.3 3.3 -2.6 7.5 -2.7 10.3 -0.3 1.2 0.9 3.8 6.3 5.9 11.9 11.7 31 31.9 49.3 56.2 51 20.5 1.5 37.8 -9.1 48.3 -29.4 8 -15.7 11.6 -30.8 13.7 -57.6 1.7 -22.7 5.8 -37.7 15.6 -57.3 5.1 -10.3 8.4 -15 27.8 -40.1 16.7 -21.6 26.1 -49.6 27.3 -81.3 0.9 -23.5 -2.4 -42.4 -10.8 -63.5 -21.4 -53.5 -64.4 -85 -112.4 -82.2 -39.2 2.3 -73.4 26.4 -91.6 64.6 -7.9 16.4 -12.1 32.9 -14.3 55.5 -1.2 12.1 -1.4 13.1 -4 15.3 -3.7 3.1 -7.1 2.9 -10.7 -0.6 -3.5 -3.5 -3.6 -6 -1.5 -23.1 4.4 -34.8 15.4 -61.4 35.3 -85.3 26.7 -32 70.6 -48.8 110.4 -42.1 53 8.9 95.7 52.4 111.8 113.8 7.7 29.4 6.4 65.8 -3.5 95.6 -7.1 21.5 -13.2 31.8 -36.4 61.5 -3.9 5 -9.1 12.9 -11.6 17.7 -9.3 18 -12.9 31.3 -14.4 52.8 -1.8 24.4 -7 47 -14.2 61.5 -7 13.9 -19.2 27.3 -31.1 33.9 -13.2 7.4 -31.4 9.5 -46.6 5.6z"
       id="path8"
       style="fill:#ffffff;fill-opacity:1" />
    <path
       d="M810.3 703.5 c-7.6 -2.1 -17.6 -6.9 -20.1 -9.5 -3.2 -3.5 -3 -9.2 0.4 -11.9 3.6 -2.9 6.3 -2.6 14.2 1.1 4.1 1.9 8.8 3.3 12.3 3.6 5.1 0.4 5.8 0.2 7.6 -2.2 4 -5 4.7 -11.4 3.3 -28.6 -2.4 -29.4 -0.8 -35.1 15.5 -53 11.3 -12.4 15.5 -19.9 15.5 -27.5 0 -13.8 -9.6 -30.8 -19 -33.6 -6.1 -1.8 -9.8 0.7 -19.3 13 -17.4 22.6 -24.6 26.6 -37.3 20.7 -8.6 -4 -15.4 -14.4 -19.5 -30.1 -2.6 -9.7 -3.1 -30.9 -1 -42.5 4.1 -22.9 15.2 -43.5 29.5 -54.9 26.1 -20.8 63.7 -19.5 89.1 3.2 6.8 6 15.5 18.8 15.5 22.7 0 4.4 -4 8.4 -8.3 8.4 -4.2 0 -6.2 -1.5 -8.9 -6.8 -3.5 -6.8 -13.4 -15.9 -21.8 -19.9 -12.5 -5.9 -23.3 -7.1 -36.3 -3.7 -17.3 4.4 -28.8 15.5 -36.7 35.6 -8.9 22.2 -9.2 47.8 -0.8 64.4 2 3.8 4.4 7.1 6 7.9 2.6 1.5 2.9 1.4 5.8 -1.4 1.8 -1.7 6.2 -7 9.9 -12 7.5 -9.9 15 -17.3 20.1 -20 1.9 -1 6.2 -2 9.6 -2.3 5.2 -0.4 7.1 0 11.8 2.1 12.6 5.8 23.7 21 27.1 37.3 4 19 -0.3 31 -18.4 50.6 -4.4 4.8 -9 10.6 -10.1 12.7 -2.4 4.8 -2.6 12.5 -0.9 30.8 1.8 18.5 -0.6 30.1 -8.1 38.7 -6.4 7.2 -16.5 10 -26.7 7.1z"
       id="path9"
       style="fill:#ffffff;fill-opacity:1" />
  </g>
</svg>
